<svg width="1072" height="872" viewBox="0 0 1072 872" fill="none" xmlns="http://www.w3.org/2000/svg">
<path d="M755.517 325.392C750.815 324.471 746.18 323.419 741.618 322.243C726.563 318.64 704.929 313.069 678.951 306.379C542.653 271.281 286.769 205.387 234.107 231.356C174.383 260.807 363.697 535.589 412.943 605.179C416.484 609.63 419.764 614.225 422.766 618.951C423.8 620.386 424.345 621.136 424.345 621.136L424.157 621.182C439.09 645.6 446.675 673.38 444.721 702.566C438.629 793.555 363.943 875.789 251 871.396C150.689 867.495 49.3325 794.031 37.0618 716.593L36.9445 716.622C36.9445 716.622 -55.4029 118.648 51.9085 59.0909C159.22 -0.465668 806.578 0.000110474 806.578 0.000110474C806.578 0.000110474 806.578 0.060392 806.578 0.179443C809.783 0.184136 813.003 0.248795 816.236 0.374561C929.179 4.76722 1015.8 82.0891 1009.71 173.078C1003.61 264.066 907.118 334.266 794.175 329.873C782.773 329.43 771.638 328.243 760.84 326.374C760.759 326.363 760.678 326.351 760.597 326.339C759.221 326.122 757.522 325.804 755.517 325.392Z" fill="#34558B"/>
<path d="M316.483 546.608C321.185 547.529 325.82 548.581 330.382 549.757C345.437 553.36 367.071 558.931 393.049 565.621C529.347 600.719 785.231 666.613 837.893 640.644C897.617 611.193 708.303 336.412 659.057 266.821C655.516 262.37 652.236 257.775 649.234 253.049C648.2 251.614 647.655 250.864 647.655 250.864L647.843 250.818C632.91 226.4 625.325 198.62 627.279 169.434C633.371 78.4453 703.294 -4.0181 816.236 0.374561C916.547 4.27593 1022.67 77.9688 1034.94 155.407L1035.06 155.378C1035.06 155.378 1127.4 753.352 1020.09 812.909C912.78 872.466 265.422 872 265.422 872C265.422 872 265.422 871.94 265.422 871.82C262.217 871.816 258.997 871.751 255.764 871.625C142.821 867.233 56.2013 789.911 62.2932 698.922C68.3852 607.934 164.882 537.734 277.825 542.127C289.227 542.57 300.362 543.757 311.16 545.626C311.241 545.637 311.322 545.649 311.403 545.661C312.779 545.878 314.478 546.196 316.483 546.608Z" fill="#34558B"/>
<path d="M167.734 181.41H929.11V713.21H167.734V181.41Z" fill="#34558B"/>
</svg>
