<svg width="168" height="219" viewBox="0 0 168 219" fill="none" xmlns="http://www.w3.org/2000/svg">
<path d="M61.4058 126.289C61.4058 126.289 43.0939 115.679 31.3743 124.826C19.6547 133.972 24.4158 150.802 24.4158 150.802C24.4158 150.802 12.6962 145.68 3.90651 153.729C-4.88319 161.777 3.90651 177.875 3.90651 177.875C3.90651 177.875 27.2415 210.854 34.8015 214.487C42.3615 218.119 52.2499 221.778 57.7435 215.924C63.237 210.07 63.6033 199.461 63.6033 199.461C63.6033 199.461 72.0267 211.168 84.845 208.607C97.6634 206.046 95.466 180.436 95.466 180.436C95.466 180.436 47.4888 181.899 47.1226 157.387C46.7563 132.875 66.1669 137.126 95.466 138.956C123.194 140.687 149.213 207.623 151.925 214.798C152.075 215.207 152.157 215.419 152.157 215.419C152.157 215.419 152.078 215.205 151.925 214.798C149.971 209.478 136.529 170.872 143.178 133.149C150.323 92.6143 160.4 57.9189 165.707 36.6773C171.014 15.4357 159.778 8.99015 153.257 8.99015C146.735 8.99015 137.581 11.8954 132.21 28.1217C126.839 44.3479 105.354 117.874 105.354 117.874C105.354 117.874 73.8123 34.9072 68.18 19.2712C62.5477 3.63514 51.0808 -1.6515 42.7277 0.434609C34.7165 2.43534 24.6041 8.94535 31.7185 28.1217C38.8329 47.298 61.4058 126.289 61.4058 126.289Z" fill="white"/>
</svg>
